<svg xmlns="http://www.w3.org/2000/svg" width="24" height="24" viewBox="0 0 24 24" fill="none">
  <path d="M9.8901 6.71002C9.7974 6.80254 9.72385 6.91242 9.67367 7.0334C9.62349 7.15437 9.59766 7.28405 9.59766 7.41502C9.59766 7.54599 9.62349 7.67567 9.67367 7.79665C9.72385 7.91762 9.7974 8.02751 9.8901 8.12002L13.7701 12L9.8901 15.88C9.79752 15.9726 9.72408 16.0825 9.67397 16.2035C9.62387 16.3244 9.59808 16.4541 9.59808 16.585C9.59808 16.716 9.62387 16.8456 9.67397 16.9666C9.72408 17.0875 9.79752 17.1974 9.8901 17.29C9.98268 17.3826 10.0926 17.456 10.2136 17.5061C10.3345 17.5563 10.4642 17.582 10.5951 17.582C10.726 17.582 10.8557 17.5563 10.9766 17.5061C11.0976 17.456 11.2075 17.3826 11.3001 17.29L15.8901 12.7C15.9828 12.6075 16.0564 12.4976 16.1065 12.3766C16.1567 12.2557 16.1825 12.126 16.1825 11.995C16.1825 11.8641 16.1567 11.7344 16.1065 11.6134C16.0564 11.4924 15.9828 11.3825 15.8901 11.29L11.3001 6.70002C10.9201 6.32002 10.2801 6.32002 9.8901 6.71002Z" fill="white"/>
</svg>