<svg xmlns="http://www.w3.org/2000/svg" width="40" height="40" viewBox="0 0 40 40" fill="none">
  <path d="M16.4835 11.1833C16.329 11.3375 16.2064 11.5207 16.1228 11.7223C16.0391 11.9239 15.9961 12.14 15.9961 12.3583C15.9961 12.5766 16.0391 12.7927 16.1228 12.9944C16.2064 13.196 16.329 13.3791 16.4835 13.5333L22.9502 20L16.4835 26.4667C16.3292 26.621 16.2068 26.8041 16.1233 27.0058C16.0398 27.2074 15.9968 27.4234 15.9968 27.6417C15.9968 27.8599 16.0398 28.076 16.1233 28.2776C16.2068 28.4792 16.3292 28.6624 16.4835 28.8167C16.6378 28.971 16.821 29.0934 17.0226 29.1769C17.2242 29.2604 17.4403 29.3034 17.6585 29.3034C17.8767 29.3034 18.0928 29.2604 18.2944 29.1769C18.496 29.0934 18.6792 28.971 18.8335 28.8167L26.4835 21.1667C26.638 21.0125 26.7606 20.8293 26.8442 20.6277C26.9279 20.4261 26.9709 20.2099 26.9709 19.9917C26.9709 19.7734 26.9279 19.5572 26.8442 19.3556C26.7606 19.154 26.638 18.9709 26.4835 18.8167L18.8335 11.1667C18.2002 10.5333 17.1335 10.5333 16.4835 11.1833Z" fill="white"/>
</svg>