<svg xmlns="http://www.w3.org/2000/svg" width="20" height="20" viewBox="0 0 20 20" fill="none">
  <g opacity="0.5">
    <path d="M10 12.5C10.675 12.5 11.25 12.25 11.7583 11.7583C12.25 11.25 12.5 10.675 12.5 9.99996C12.5 9.32496 12.25 8.74996 11.7583 8.24163C11.25 7.74996 10.675 7.49996 10 7.49996C9.32501 7.49996 8.75001 7.74996 8.24167 8.24163C7.75001 8.74996 7.5 9.32496 7.5 9.99996C7.5 10.675 7.75001 11.25 8.24167 11.7583C8.75001 12.25 9.32501 12.5 10 12.5ZM10 1.66663C12.2917 1.66663 14.25 2.49996 15.875 4.12496C17.5 5.74996 18.3333 7.70829 18.3333 9.99996V11.2083C18.3333 12.0416 18.0417 12.75 17.5 13.3333C16.9167 13.8916 16.25 14.1666 15.4167 14.1666C14.4167 14.1666 13.5917 13.75 12.9667 12.9166C12.1333 13.75 11.15 14.1666 10 14.1666C8.85834 14.1666 7.875 13.75 7.05 12.95C6.25001 12.125 5.83334 11.15 5.83334 9.99996C5.83334 8.85829 6.25001 7.87496 7.05 7.04996C7.875 6.24996 8.85834 5.83329 10 5.83329C11.15 5.83329 12.125 6.24996 12.95 7.04996C13.75 7.87496 14.1667 8.85829 14.1667 9.99996V11.2083C14.1667 11.55 14.3 11.85 14.55 12.1083C14.8 12.3666 15.0917 12.5 15.4167 12.5C15.7667 12.5 16.0583 12.3666 16.3083 12.1083C16.5583 11.85 16.6667 11.55 16.6667 11.2083V9.99996C16.6667 8.17496 16.025 6.60829 14.7083 5.29163C13.3917 3.97496 11.825 3.33329 10 3.33329C8.175 3.33329 6.60834 3.97496 5.29167 5.29163C3.975 6.60829 3.33334 8.17496 3.33334 9.99996C3.33334 11.825 3.975 13.3916 5.29167 14.7083C6.60834 16.025 8.175 16.6666 10 16.6666H14.1667V18.3333H10C7.70834 18.3333 5.75 17.5 4.125 15.875C2.5 14.25 1.66667 12.2916 1.66667 9.99996C1.66667 7.70829 2.5 5.74996 4.125 4.12496C5.75 2.49996 7.70834 1.66663 10 1.66663Z" fill="#090822" fill-opacity="0.5"/>
  </g>
</svg>