<svg xmlns="http://www.w3.org/2000/svg" width="32" height="32" viewBox="0 0 32 32" fill="none">
  <g clip-path="url(#clip0_137_1252)">
    <path d="M26.98 7.58137C27.556 5.98804 26.012 4.44404 24.4187 5.02137L4.94533 12.064C3.34667 12.6427 3.15333 14.824 4.624 15.676L10.84 19.2747L16.3907 13.724C16.6421 13.4812 16.9789 13.3468 17.3285 13.3498C17.6781 13.3528 18.0125 13.4931 18.2598 13.7403C18.507 13.9875 18.6472 14.3219 18.6502 14.6715C18.6533 15.0211 18.5189 15.3579 18.276 15.6094L12.7253 21.16L16.3253 27.376C17.176 28.8467 19.3573 28.652 19.936 27.0547L26.98 7.58137Z" fill="black"/>
  </g>
  <defs>
    <clipPath id="clip0_137_1252">
      <rect width="32" height="32" fill="white"/>
    </clipPath>
  </defs>
</svg>