<svg xmlns="http://www.w3.org/2000/svg" width="96" height="32" viewBox="0 0 96 32" fill="none">
  <g clip-path="url(#clip0_93_2397)">
    <path d="M61.2476 23.658C60.4531 23.658 59.8205 23.4961 59.3496 23.1724C58.8936 22.834 58.6655 22.3338 58.6655 21.6718C58.6655 20.8478 58.9083 20.1931 59.3938 19.7076C59.8941 19.2074 60.5929 18.9573 61.4903 18.9573C62.2848 18.9573 62.9101 19.1264 63.3662 19.4649C63.837 19.7885 64.0724 20.2814 64.0724 20.9435C64.0724 21.7674 63.8296 22.4295 63.3441 22.9297C62.8586 23.4152 62.1598 23.658 61.2476 23.658Z" fill="#C0FF2D"/>
    <path d="M59.7897 8.93799L56.4131 23.5035H51.2711L54.6476 8.93799H59.7897ZM50.6531 8.93799L47.2766 23.5035H42.1345L45.5111 8.93799H50.6531ZM56.2587 14.3007L55.3759 18.0745H45.8642L46.7469 14.3007H56.2587Z" fill="white"/>
    <path d="M43.9764 8.93799L43.0936 12.7118H38.5474L36.0536 23.5035H30.9115L33.4053 12.7118H28.8371L29.7198 8.93799H43.9764Z" fill="white"/>
    <path d="M12.4052 23.5035L20.5486 8.93799H26.7279L28.0521 23.5035H23.219L23.1528 20.5904H19.0921L17.6576 23.5035H12.4052ZM20.681 17.3904H23.0645L22.9983 12.5352L20.681 17.3904Z" fill="white"/>
    <path d="M0.0439453 23.5035L3.42049 8.93799H9.71015C11.6375 8.93799 13.1382 9.34259 14.2122 10.1518C15.3009 10.9463 15.8453 12.0865 15.8453 13.5725C15.8453 14.6906 15.5804 15.6837 15.0508 16.5518C14.5211 17.4051 13.7561 18.0745 12.7556 18.5601C11.7699 19.0456 10.5782 19.2883 9.18049 19.2883H3.70739L4.52394 15.647H8.73911C9.18049 15.647 9.54832 15.5734 9.84256 15.4263C10.1515 15.2644 10.3869 15.0585 10.5488 14.8083C10.7106 14.5435 10.7915 14.2566 10.7915 13.9476C10.7915 13.5209 10.6665 13.1899 10.4164 12.9545C10.1662 12.7044 9.72487 12.5794 9.09222 12.5794H7.70187L5.18601 23.5035H0.0439453Z" fill="white"/>
    <path fill-rule="evenodd" clip-rule="evenodd" d="M58.7369 0.441379L52.0769 31.5586H88.0217L94.6817 0.441379H58.7369ZM58.38 0L51.531 32H88.3786L95.2276 0H58.38Z" fill="white"/>
    <path fill-rule="evenodd" clip-rule="evenodd" d="M22.6541 0.441379L15.9941 31.5586H51.939L58.5989 0.441379H22.6541ZM22.2973 0L15.4483 32H52.2958L59.1448 0H22.2973Z" fill="white"/>
  </g>
  <defs>
    <clipPath id="clip0_93_2397">
      <rect width="95.2276" height="32" fill="white"/>
    </clipPath>
  </defs>
</svg>